<svg width="36" height="36" viewBox="0 0 36 36" fill="white" xmlns="http://www.w3.org/2000/svg">
<g clip-path="url(#clip0_516_9)">
<path d="M21 12H7C6.73478 12 6.48043 11.8946 6.29289 11.7071C6.10536 11.5196 6 11.2652 6 11V7C6 6.73478 6.10536 6.48043 6.29289 6.29289C6.48043 6.10536 6.73478 6 7 6H21C21.2652 6 21.5196 6.10536 21.7071 6.29289C21.8946 6.48043 22 6.73478 22 7V11C22 11.2652 21.8946 11.5196 21.7071 11.7071C21.5196 11.8946 21.2652 12 21 12ZM8 10H20V7.94H8V10Z" fill="white"/>
<path d="M21 14.0801H7C6.73478 14.0801 6.48043 14.1854 6.29289 14.373C6.10536 14.5605 6 14.8149 6 15.0801V19.0001C6 19.2653 6.10536 19.5196 6.29289 19.7072C6.48043 19.8947 6.73478 20.0001 7 20.0001H18.36L22 16.3001V15.0801C22 14.8149 21.8946 14.5605 21.7071 14.373C21.5196 14.1854 21.2652 14.0801 21 14.0801ZM20 18.0001H8V16.0001H20V18.0001Z" fill="white"/>
<path d="M11.06 31.51V31.45L11.38 30.06H4V4H24V14.25L26 12.36V3C26 2.73478 25.8946 2.48043 25.7071 2.29289C25.5196 2.10536 25.2652 2 25 2H3C2.73478 2 2.48043 2.10536 2.29289 2.29289C2.10536 2.48043 2 2.73478 2 3V31C2 31.2652 2.10536 31.5196 2.29289 31.7071C2.48043 31.8946 2.73478 32 3 32H11C11.0082 31.8354 11.0283 31.6717 11.06 31.51Z" fill="white"/>
<path d="M21.9997 19.1699L21.2197 19.9599C21.4132 19.92 21.5906 19.8237 21.7294 19.6831C21.8682 19.5425 21.9623 19.3639 21.9997 19.1699Z" fill="white"/>
<path d="M6 26.94C6 27.2052 6.10536 27.4596 6.29289 27.6471C6.48043 27.8346 6.73478 27.94 7 27.94H11.84L12.14 26.64L12.27 26.09V26.04H8V24H14.34L16.34 22H7C6.73478 22 6.48043 22.1054 6.29289 22.2929C6.10536 22.4804 6 22.7348 6 23V26.94Z" fill="white"/>
<path d="M33.4902 16.6693L30.1202 13.2993C29.9707 13.1493 29.793 13.0303 29.5974 12.9491C29.4017 12.868 29.192 12.8262 28.9802 12.8262C28.7684 12.8262 28.5587 12.868 28.3631 12.9491C28.1675 13.0303 27.9898 13.1493 27.8402 13.2993L14.1302 27.0893L13.0002 31.8993C12.9579 32.1068 12.957 32.3206 12.9974 32.5285C13.0379 32.7364 13.119 32.9342 13.236 33.1107C13.353 33.2872 13.5038 33.4389 13.6795 33.557C13.8553 33.6752 14.0526 33.7575 14.2602 33.7993C14.3633 33.8096 14.4672 33.8096 14.5702 33.7993C14.6928 33.8193 14.8177 33.8193 14.9402 33.7993L19.7902 32.7293L33.4902 18.9993C33.6399 18.8506 33.7587 18.6737 33.8397 18.479C33.9208 18.2842 33.9625 18.0753 33.9625 17.8643C33.9625 17.6533 33.9208 17.4444 33.8397 17.2496C33.7587 17.0548 33.6399 16.878 33.4902 16.7293V16.6693ZM18.7702 30.9093L15.1102 31.7193L16.0002 28.0893L26.2802 17.6993L29.1002 20.5193L18.7702 30.9093ZM30.2302 19.3893L27.4102 16.5693L29.0002 14.9993L31.8402 17.8393L30.2302 19.3893Z" fill="white"/>
</g>
<defs>
<clipPath id="clip0_516_9">
<rect width="36" height="36" fill="white"/>
</clipPath>
</defs>
</svg>
